<svg width="33" height="33" viewBox="0 0 33 33" fill="none" xmlns="http://www.w3.org/2000/svg">
<path d="M17.875 22H19.9375C20.3171 22 20.625 22.3079 20.625 22.6875C20.625 23.0671 20.3171 23.375 19.9375 23.375H14.4375C14.0579 23.375 13.75 23.0671 13.75 22.6875C13.75 22.3079 14.0579 22 14.4375 22H16.5V15.125H14.4375C14.0579 15.125 13.75 14.8171 13.75 14.4375C13.75 14.0579 14.0579 13.75 14.4375 13.75H17.1875C17.5671 13.75 17.875 14.0579 17.875 14.4375V22ZM16.5 30.25C8.90608 30.25 2.75 24.0939 2.75 16.5C2.75 8.90608 8.90608 2.75 16.5 2.75C24.0939 2.75 30.25 8.90608 30.25 16.5C30.25 24.0939 24.0939 30.25 16.5 30.25ZM16.5 28.875C23.3346 28.875 28.875 23.3346 28.875 16.5C28.875 9.66548 23.3346 4.125 16.5 4.125C9.66548 4.125 4.125 9.66548 4.125 16.5C4.125 23.3346 9.66548 28.875 16.5 28.875ZM15.8125 9.625H17.1875C17.5671 9.625 17.875 9.93281 17.875 10.3125V11.6875C17.875 12.0672 17.5671 12.375 17.1875 12.375H15.8125C15.4329 12.375 15.125 12.0672 15.125 11.6875V10.3125C15.125 9.93281 15.4329 9.625 15.8125 9.625Z" fill="#3C2C26"/>
</svg>
